<?xml version="1.0" standalone="no"?><!DOCTYPE svg PUBLIC "-//W3C//DTD SVG 1.1//EN" "http://www.w3.org/Graphics/SVG/1.1/DTD/svg11.dtd"><svg t="1586239501612" class="icon" viewBox="0 0 1024 1024" version="1.1" xmlns="http://www.w3.org/2000/svg" p-id="6638" xmlns:xlink="http://www.w3.org/1999/xlink" width="200" height="200"><defs><style type="text/css"></style></defs><path d="M793.6 204.8h-76.8v51.2h76.8c28.16 0 51.2 23.04 51.2 51.2v512c0 28.16-23.04 51.2-51.2 51.2H281.6c-28.16 0-51.2-23.04-51.2-51.2V307.2c0-28.16 23.04-51.2 51.2-51.2h76.8V204.8h-76.8c-56.32 0-102.4 46.08-102.4 102.4v512c0 56.32 46.08 102.4 102.4 102.4h512c56.32 0 102.4-46.08 102.4-102.4V307.2c0-56.32-46.08-102.4-102.4-102.4zM340.48 583.68l176.64 176.64c5.12 5.12 12.8 7.68 20.48 7.68 7.68 0 12.8-2.56 20.48-7.68l176.64-176.64c10.24-10.24 10.24-25.6 0-35.84-10.24-10.24-25.6-10.24-35.84 0L563.2 680.96V128c0-15.36-10.24-25.6-25.6-25.6s-25.6 10.24-25.6 25.6v552.96l-133.12-133.12c-10.24-10.24-25.6-10.24-35.84 0-10.24 7.68-10.24 25.6-2.56 35.84z" p-id="6639"></path></svg>